<svg role="img" viewBox="0 0 64 64" xmlns="http://www.w3.org/2000/svg" id="Fedora--Streamline-Simple-Icons" height="64" width="64">
  <desc>
    Fedora Streamline Icon: https://streamlinehq.com
  </desc>
  <title>Fedora</title>
  <path d="M32.00266666666666 0C14.336 0 0.021333333333333333 14.317333333333332 0.010666666666666666 31.97866666666667H0.005333333333333333v24.765333333333334h0.005333333333333333A7.269333333333333 7.269333333333333 0 0 0 7.279999999999999 64h24.733333333333334c17.669333333333334 -0.010666666666666666 31.981333333333332 -14.325333333333333 31.981333333333332 -31.991999999999997C63.99466666666667 14.333333333333332 49.67466666666667 0 32 0zm6.482666666666667 13.173333333333334c5.373333333333333 0 10.445333333333332 4.1146666666666665 10.445333333333332 9.789333333333332 0 0.5253333333333333 0.0026666666666666666 1.0533333333333332 -0.07999999999999999 1.6506666666666665a2.6719999999999997 2.6719999999999997 0 0 1 -3.032 2.381333333333333 2.6719999999999997 2.6719999999999997 0 0 1 -2.245333333333333 -3.1333333333333333 6.959999999999999 6.959999999999999 0 0 0 0.034666666666666665 -0.8986666666666667c0 -3.2186666666666666 -2.6319999999999997 -4.458666666666666 -5.119999999999999 -4.458666666666666 -2.490666666666667 0 -4.7333333333333325 2.0906666666666665 -4.738666666666666 4.458666666666666 0.042666666666666665 2.738666666666666 0 5.4559999999999995 0 8.186666666666666l4.618666666666666 -0.032c3.6053333333333333 -0.07466666666666666 3.648 5.357333333333333 0.042666666666666665 5.327999999999999l-4.661333333333333 0.034666666666666665c-0.010666666666666666 2.2026666666666666 0.016 1.8053333333333335 0.005333333333333333 2.9146666666666663 0 0 0.039999999999999994 2.6933333333333334 -0.042666666666666665 4.736 -0.5573333333333332 6 -5.664 10.789333333333333 -11.797333333333334 10.789333333333333 -6.501333333333333 0 -11.861333333333334 -5.314666666666667 -11.861333333333334 -11.832 0.19466666666666665 -6.706666666666667 5.541333333333332 -11.978666666666665 12.274666666666665 -11.917333333333334l3.7573333333333334 -0.026666666666666665v5.322666666666667l-3.7573333333333334 0.034666666666666665h-0.018666666666666665c-3.701333333333333 0.10666666666666666 -6.872 2.6239999999999997 -6.933333333333334 6.586666666666667a6.501333333333333 6.501333333333333 0 0 0 6.538666666666666 6.504c3.616 0 6.509333333333332 -2.6319999999999997 6.509333333333332 -6.498666666666666l-0.0026666666666666666 -20.152c0 -0.37333333333333335 0.013333333333333332 -0.6719999999999999 0.05333333333333333 -1.0853333333333333 0.6133333333333333 -4.928 5.021333333333333 -8.682666666666666 10.010666666666665 -8.682666666666666z" fill="#000000" stroke-width="2.6667"></path>
</svg>